# xmcd CD database file
#
# Track frame offsets:
#	150
#	14748
#	27725
#	40580
#	55427
#	70461
#	83820
#	96303
#	108227
#	123305
#	136238
#	151627
#	165634
#	180445
#	194895
#	208917
#	223674
#	236529
#	247910
#	262371
#	274301
#	286403
#	298617
#
# Disc length: 4156 seconds
#
# Revision: 0
# Processed by: cddbd v1.5.2PL0 Copyright (c) Steve Scherf et al.
# Submitted via: CDex 1.70beta2
#
DISCID=67103a17
DTITLE=Fats Waller - Giants of Jazz Disc 1
DYEAR=1900
DGENRE=Jazz
TTITLE0=Muscle Shoals Blues: Thomas Waller
TTITLE1=The Henderson Stomp: Fletcher Henderson and His Orchestra 
TTITLE2=St. Louis Blues: Thomas Waller 
TTITLE3=Beale Street Blues: Alberta Hunter accompanied by Thomas Waller 
TTITLE4=Willow Tree: Louisiana Sugar Babes Orchestra
TTITLE5=Thou Swell: Louisiana Sugar Babes
TTITLE6=Handful of Keys: Thomas Waller
TTITLE7=The Minor Drag: Fats Waller and His Buddies
TTITLE8=Harlem Fuss: Fats Waller and His Buddies
TTITLE9=Numb Fumblin': Thomas Waller 
TTITLE10=Valentine Stomp: Fats Waller
TTITLE11=Smashing Thirds: Fats Waller
TTITLE12=Dallas Blues: Ted Lewis and His Band
TTITLE13=You Rascal You: Jack Teagarden and His Orchestra
TTITLE14=Mean Old Bedbug Blues: The Rhythmakers
TTITLE15=Yellow Dog Blues: The Rhythmakers 
TTITLE16=Don't Let It Bother You: Fats Waller and His Rhythm
TTITLE17=Mandy: Fats Waller and His Rhythm
TTITLE18=You're Not the Only Oyster in the Stew: Fats Waller and His Rhythm 
TTITLE19=Honeysuckle Rose: Fats Waller and His Rhythm 
TTITLE20=Believe It, Beloved: Fats Waller and His Rhythm
TTITLE21=Alligator Crawl: Fats Waller 
TTITLE22=Viper's Drag: Fats Waller 
EXTD=
EXTT0=
EXTT1=
EXTT2=
EXTT3=
EXTT4=
EXTT5=
EXTT6=
EXTT7=
EXTT8=
EXTT9=
EXTT10=
EXTT11=
EXTT12=
EXTT13=
EXTT14=
EXTT15=
EXTT16=
EXTT17=
EXTT18=
EXTT19=
EXTT20=
EXTT21=
EXTT22=
PLAYORDER=
